{
  "accessors": [
    {
      "bufferView": 2,
      "componentType": 5126,
      "count": 65532,
      "max": [
        6.923218727111816,
        4.621588706970215,
        3.5193376541137695
      ],
      "min": [
        -6.923219680786133,
        -9.04123306274414,
        -1.585506796836853
      ],
      "type": "VEC3"
    },
    {
      "bufferView": 2,
      "byteOffset": 786384,
      "componentType": 5126,
      "count": 65532,
      "max": [
        1.0,
        1.0,
        1.0
      ],
      "min": [
        -1.0,
        -1.0,
        -1.0
      ],
      "type": "VEC3"
    },
    {
      "bufferView": 3,
      "componentType": 5126,
      "count": 65532,
      "max": [
        1.0,
        1.0,
        1.0,
        1.0
      ],
      "min": [
        -1.0,
        -1.0,
        -1.0,
        -1.0
      ],
      "type": "VEC4"
    },
    {
      "bufferView": 3,
      "byteOffset": 1048512,
      "componentType": 5126,
      "count": 65532,
      "max": [
        1.0,
        1.0,
        1.0,
        1.0
      ],
      "min": [
        0.9921568632125854,
        0.9921568632125854,
        0.9921568632125854,
        0.9921568632125854
      ],
      "type": "VEC4"
    },
    {
      "bufferView": 1,
      "componentType": 5126,
      "count": 65532,
      "max": [
        0.9998501539230347,
        1.0
      ],
      "min": [
        -4.295798561315678e-08,
        1.496087043051375e-05
      ],
      "type": "VEC2"
    },
    {
      "bufferView": 1,
      "byteOffset": 524256,
      "componentType": 5126,
      "count": 65532,
      "max": [
        0.9998501539230347,
        1.0
      ],
      "min": [
        -4.295798561315678e-08,
        1.496087043051375e-05
      ],
      "type": "VEC2"
    },
    {
      "bufferView": 1,
      "byteOffset": 1048512,
      "componentType": 5126,
      "count": 65532,
      "max": [
        0.9998501539230347,
        1.0
      ],
      "min": [
        -4.295798561315678e-08,
        1.496087043051375e-05
      ],
      "type": "VEC2"
    },
    {
      "bufferView": 1,
      "byteOffset": 1572768,
      "componentType": 5126,
      "count": 65532,
      "max": [
        0.9998501539230347,
        1.0
      ],
      "min": [
        -4.295798561315678e-08,
        1.496087043051375e-05
      ],
      "type": "VEC2"
    },
    {
      "bufferView": 0,
      "componentType": 5125,
      "count": 192027,
      "type": "SCALAR"
    },
    {
      "bufferView": 2,
      "byteOffset": 1572768,
      "componentType": 5126,
      "count": 65532,
      "max": [
        1.562648057937622,
        5.932952404022217,
        3.365487813949585
      ],
      "min": [
        -6.972292900085449,
        -7.354979991912842,
        -1.5633611679077148
      ],
      "type": "VEC3"
    },
    {
      "bufferView": 2,
      "byteOffset": 2359152,
      "componentType": 5126,
      "count": 65532,
      "max": [
        1.0,
        1.0,
        1.0
      ],
      "min": [
        -1.0,
        -1.0,
        -1.0
      ],
      "type": "VEC3"
    },
    {
      "bufferView": 3,
      "byteOffset": 2097024,
      "componentType": 5126,
      "count": 65532,
      "max": [
        1.0,
        1.0,
        1.0,
        1.0
      ],
      "min": [
        -1.0,
        -1.0,
        -1.0,
        -1.0
      ],
      "type": "VEC4"
    },
    {
      "bufferView": 3,
      "byteOffset": 3145536,
      "componentType": 5126,
      "count": 65532,
      "max": [
        1.0,
        1.0,
        1.0,
        1.0
      ],
      "min": [
        1.0,
        1.0,
        1.0,
        1.0
      ],
      "type": "VEC4"
    },
    {
      "bufferView": 1,
      "byteOffset": 2097024,
      "componentType": 5126,
      "count": 65532,
      "max": [
        0.9998482465744019,
        0.999997079372406
      ],
      "min": [
        0.0,
        -4.2641971731427475e-08
      ],
      "type": "VEC2"
    },
    {
      "bufferView": 1,
      "byteOffset": 2621280,
      "componentType": 5126,
      "count": 65532,
      "max": [
        0.9998482465744019,
        0.999997079372406
      ],
      "min": [
        0.0,
        -4.2641971731427475e-08
      ],
      "type": "VEC2"
    },
    {
      "bufferView": 1,
      "byteOffset": 3145536,
      "componentType": 5126,
      "count": 65532,
      "max": [
        0.9998482465744019,
        0.999997079372406
      ],
      "min": [
        0.0,
        -4.2641971731427475e-08
      ],
      "type": "VEC2"
    },
    {
      "bufferView": 1,
      "byteOffset": 3669792,
      "componentType": 5126,
      "count": 65532,
      "max": [
        0.9998482465744019,
        0.999997079372406
      ],
      "min": [
        0.0,
        -4.2641971731427475e-08
      ],
      "type": "VEC2"
    },
    {
      "bufferView": 0,
      "byteOffset": 768108,
      "componentType": 5125,
      "count": 182364,
      "type": "SCALAR"
    },
    {
      "bufferView": 2,
      "byteOffset": 3145536,
      "componentType": 5126,
      "count": 65532,
      "max": [
        6.956785202026367,
        5.932952404022217,
        3.787006378173828
      ],
      "min": [
        -6.972292900085449,
        -7.697963714599609,
        -1.585506796836853
      ],
      "type": "VEC3"
    },
    {
      "bufferView": 2,
      "byteOffset": 3931920,
      "componentType": 5126,
      "count": 65532,
      "max": [
        1.0,
        1.0,
        1.0
      ],
      "min": [
        -1.0,
        -1.0,
        -1.0
      ],
      "type": "VEC3"
    },
    {
      "bufferView": 3,
      "byteOffset": 4194048,
      "componentType": 5126,
      "count": 65532,
      "max": [
        1.0,
        1.0,
        1.0,
        1.0
      ],
      "min": [
        -1.0,
        -1.0,
        -1.0,
        -1.0
      ],
      "type": "VEC4"
    },
    {
      "bufferView": 3,
      "byteOffset": 5242560,
      "componentType": 5126,
      "count": 65532,
      "max": [
        1.0,
        1.0,
        1.0,
        1.0
      ],
      "min": [
        1.0,
        1.0,
        1.0,
        1.0
      ],
      "type": "VEC4"
    },
    {
      "bufferView": 1,
      "byteOffset": 4194048,
      "componentType": 5126,
      "count": 65532,
      "max": [
        0.9998171925544739,
        0.9999844431877136
      ],
      "min": [
        -1.656048986831138e-08,
        -1.1652552533991667e-10
      ],
      "type": "VEC2"
    },
    {
      "bufferView": 1,
      "byteOffset": 4718304,
      "componentType": 5126,
      "count": 65532,
      "max": [
        0.9998171925544739,
        0.9999844431877136
      ],
      "min": [
        -1.656048986831138e-08,
        -1.1652552533991667e-10
      ],
      "type": "VEC2"
    },
    {
      "bufferView": 1,
      "byteOffset": 5242560,
      "componentType": 5126,
      "count": 65532,
      "max": [
        0.9998171925544739,
        0.9999844431877136
      ],
      "min": [
        -1.656048986831138e-08,
        -1.1652552533991667e-10
      ],
      "type": "VEC2"
    },
    {
      "bufferView": 1,
      "byteOffset": 5766816,
      "componentType": 5126,
      "count": 65532,
      "max": [
        0.9998171925544739,
        0.9999844431877136
      ],
      "min": [
        -1.656048986831138e-08,
        -1.1652552533991667e-10
      ],
      "type": "VEC2"
    },
    {
      "bufferView": 0,
      "byteOffset": 1497564,
      "componentType": 5125,
      "count": 183204,
      "type": "SCALAR"
    },
    {
      "bufferView": 2,
      "byteOffset": 4718304,
      "componentType": 5126,
      "count": 48831,
      "max": [
        6.972291946411133,
        4.379281044006348,
        3.787006378173828
      ],
      "min": [
        -0.21439489722251892,
        -7.509000778198242,
        -1.585506796836853
      ],
      "type": "VEC3"
    },
    {
      "bufferView": 2,
      "byteOffset": 5304276,
      "componentType": 5126,
      "count": 48831,
      "max": [
        1.0,
        1.0,
        1.0
      ],
      "min": [
        -1.0,
        -1.0,
        -1.0
      ],
      "type": "VEC3"
    },
    {
      "bufferView": 3,
      "byteOffset": 6291072,
      "componentType": 5126,
      "count": 48831,
      "max": [
        1.0,
        1.0,
        1.0,
        1.0
      ],
      "min": [
        -1.0,
        -1.0,
        -1.0,
        -1.0
      ],
      "type": "VEC4"
    },
    {
      "bufferView": 3,
      "byteOffset": 7072368,
      "componentType": 5126,
      "count": 48831,
      "max": [
        1.0,
        1.0,
        1.0,
        1.0
      ],
      "min": [
        1.0,
        1.0,
        1.0,
        1.0
      ],
      "type": "VEC4"
    },
    {
      "bufferView": 1,
      "byteOffset": 6291072,
      "componentType": 5126,
      "count": 48831,
      "max": [
        0.9998171925544739,
        0.9999815225601196
      ],
      "min": [
        0.0009796697413548827,
        5.4523878467716e-11
      ],
      "type": "VEC2"
    },
    {
      "bufferView": 1,
      "byteOffset": 6681720,
      "componentType": 5126,
      "count": 48831,
      "max": [
        0.9998171925544739,
        0.9999815225601196
      ],
      "min": [
        0.0009796697413548827,
        5.4523878467716e-11
      ],
      "type": "VEC2"
    },
    {
      "bufferView": 1,
      "byteOffset": 7072368,
      "componentType": 5126,
      "count": 48831,
      "max": [
        0.9998171925544739,
        0.9999815225601196
      ],
      "min": [
        0.0009796697413548827,
        5.4523878467716e-11
      ],
      "type": "VEC2"
    },
    {
      "bufferView": 1,
      "byteOffset": 7463016,
      "componentType": 5126,
      "count": 48831,
      "max": [
        0.9998171925544739,
        0.9999815225601196
      ],
      "min": [
        0.0009796697413548827,
        5.4523878467716e-11
      ],
      "type": "VEC2"
    },
    {
      "bufferView": 0,
      "byteOffset": 2230380,
      "componentType": 5125,
      "count": 143376,
      "type": "SCALAR"
    },
    {
      "bufferView": 2,
      "byteOffset": 5890248,
      "componentType": 5126,
      "count": 4664,
      "max": [
        6.957136154174805,
        4.415209770202637,
        2.1744768619537354
      ],
      "min": [
        -6.957137107849121,
        -4.166429042816162,
        -1.4803364276885986
      ],
      "type": "VEC3"
    },
    {
      "bufferView": 2,
      "byteOffset": 5946216,
      "componentType": 5126,
      "count": 4664,
      "max": [
        1.0,
        1.0,
        1.0
      ],
      "min": [
        -1.0,
        -1.0,
        -1.0
      ],
      "type": "VEC3"
    },
    {
      "bufferView": 3,
      "byteOffset": 7853664,
      "componentType": 5126,
      "count": 4664,
      "max": [
        0.9850732088088989,
        0.9769525527954102,
        1.0,
        1.0
      ],
      "min": [
        -0.9993284344673157,
        -0.9975761771202087,
        -1.0,
        -1.0
      ],
      "type": "VEC4"
    },
    {
      "bufferView": 3,
      "byteOffset": 7928288,
      "componentType": 5126,
      "count": 4664,
      "max": [
        1.0,
        1.0,
        1.0,
        1.0
      ],
      "min": [
        1.0,
        1.0,
        1.0,
        1.0
      ],
      "type": "VEC4"
    },
    {
      "bufferView": 1,
      "byteOffset": 7853664,
      "componentType": 5126,
      "count": 4664,
      "max": [
        0.9743102788925171,
        0.9340402483940125
      ],
      "min": [
        0.03454834222793579,
        0.21092353761196136
      ],
      "type": "VEC2"
    },
    {
      "bufferView": 0,
      "byteOffset": 2803884,
      "componentType": 5125,
      "count": 22860,
      "type": "SCALAR"
    },
    {
      "bufferView": 2,
      "byteOffset": 6002184,
      "componentType": 5126,
      "count": 65532,
      "max": [
        7.909461498260498,
        4.6476945877075195,
        3.4433789253234863
      ],
      "min": [
        -7.906491279602051,
        -7.698151588439941,
        -1.744816541671753
      ],
      "type": "VEC3"
    },
    {
      "bufferView": 2,
      "byteOffset": 6788568,
      "componentType": 5126,
      "count": 65532,
      "max": [
        1.0,
        1.0,
        1.0
      ],
      "min": [
        -1.0,
        -1.0,
        -1.0
      ],
      "type": "VEC3"
    },
    {
      "bufferView": 3,
      "byteOffset": 8002912,
      "componentType": 5126,
      "count": 65532,
      "max": [
        1.0,
        1.0,
        1.0,
        1.0
      ],
      "min": [
        -1.0,
        -1.0,
        -1.0,
        -1.0
      ],
      "type": "VEC4"
    },
    {
      "bufferView": 3,
      "byteOffset": 9051424,
      "componentType": 5126,
      "count": 65532,
      "max": [
        1.0,
        1.0,
        1.0,
        1.0
      ],
      "min": [
        0.0,
        0.0,
        0.0,
        0.0
      ],
      "type": "VEC4"
    },
    {
      "bufferView": 1,
      "byteOffset": 7890976,
      "componentType": 5126,
      "count": 65532,
      "max": [
        0.9999999403953552,
        0.9987754821777344
      ],
      "min": [
        1.3936496543465182e-05,
        1.3196987946884065e-10
      ],
      "type": "VEC2"
    },
    {
      "bufferView": 1,
      "byteOffset": 8415232,
      "componentType": 5126,
      "count": 65532,
      "max": [
        0.9999999403953552,
        0.9987754821777344
      ],
      "min": [
        1.3936496543465182e-05,
        1.3196987946884065e-10
      ],
      "type": "VEC2"
    },
    {
      "bufferView": 1,
      "byteOffset": 8939488,
      "componentType": 5126,
      "count": 65532,
      "max": [
        0.9999999403953552,
        0.9987754821777344
      ],
      "min": [
        1.3936496543465182e-05,
        1.3196987946884065e-10
      ],
      "type": "VEC2"
    },
    {
      "bufferView": 0,
      "byteOffset": 2895324,
      "componentType": 5125,
      "count": 211269,
      "type": "SCALAR"
    },
    {
      "bufferView": 2,
      "byteOffset": 7574952,
      "componentType": 5126,
      "count": 28892,
      "max": [
        7.905975818634033,
        4.6476945877075195,
        3.4433717727661133
      ],
      "min": [
        -7.909461498260498,
        -7.696197509765625,
        -1.7443305253982544
      ],
      "type": "VEC3"
    },
    {
      "bufferView": 2,
      "byteOffset": 7921656,
      "componentType": 5126,
      "count": 28892,
      "max": [
        1.0,
        1.0,
        1.0
      ],
      "min": [
        -1.0,
        -1.0,
        -1.0
      ],
      "type": "VEC3"
    },
    {
      "bufferView": 3,
      "byteOffset": 10099936,
      "componentType": 5126,
      "count": 28892,
      "max": [
        1.0,
        1.0,
        1.0,
        1.0
      ],
      "min": [
        -1.0,
        -1.0,
        -1.0,
        -1.0
      ],
      "type": "VEC4"
    },
    {
      "bufferView": 3,
      "byteOffset": 10562208,
      "componentType": 5126,
      "count": 28892,
      "max": [
        1.0,
        1.0,
        1.0,
        1.0
      ],
      "min": [
        0.0,
        0.0,
        0.0,
        0.0
      ],
      "type": "VEC4"
    },
    {
      "bufferView": 1,
      "byteOffset": 9463744,
      "componentType": 5126,
      "count": 28892,
      "max": [
        0.9999980330467224,
        0.9991472363471985
      ],
      "min": [
        4.764335592710722e-10,
        1.1539300430740695e-06
      ],
      "type": "VEC2"
    },
    {
      "bufferView": 1,
      "byteOffset": 9694880,
      "componentType": 5126,
      "count": 28892,
      "max": [
        0.9999980330467224,
        0.9991472363471985
      ],
      "min": [
        4.764335592710722e-10,
        1.1539300430740695e-06
      ],
      "type": "VEC2"
    },
    {
      "bufferView": 1,
      "byteOffset": 9926016,
      "componentType": 5126,
      "count": 28892,
      "max": [
        0.9999980330467224,
        0.9991472363471985
      ],
      "min": [
        4.764335592710722e-10,
        1.1539300430740695e-06
      ],
      "type": "VEC2"
    },
    {
      "bufferView": 0,
      "byteOffset": 3740400,
      "componentType": 5125,
      "count": 89616,
      "type": "SCALAR"
    }
  ],
  "asset": {
    "extras": {
      "author": "smithson17 (https://sketchfab.com/smithson17)",
      "license": "CC-BY-4.0 (http://creativecommons.org/licenses/by/4.0/)",
      "source": "https://sketchfab.com/3d-models/star-wars-laati-gunship-77e5a30af490488c8019dcb3780ec847",
      "title": "Star Wars LAAT/i Gunship"
    },
    "generator": "Sketchfab-16.21.0",
    "version": "2.0"
  },
  "bufferViews": [
    {
      "buffer": 0,
      "byteLength": 4098864,
      "name": "floatBufferViews",
      "target": 34963
    },
    {
      "buffer": 0,
      "byteLength": 10157152,
      "byteOffset": 4098864,
      "byteStride": 8,
      "name": "floatBufferViews",
      "target": 34962
    },
    {
      "buffer": 0,
      "byteLength": 8268360,
      "byteOffset": 14256016,
      "byteStride": 12,
      "name": "floatBufferViews",
      "target": 34962
    },
    {
      "buffer": 0,
      "byteLength": 11024480,
      "byteOffset": 22524376,
      "byteStride": 16,
      "name": "floatBufferViews",
      "target": 34962
    }
  ],
  "buffers": [
    {
      "byteLength": 33548856,
      "uri": "scene.bin"
    }
  ],
  "extensionsUsed": [
    "KHR_materials_transmission"
  ],
  "images": [
    {
      "uri": "textures/LAAT_INT_EXT_baseColor.png"
    },
    {
      "uri": "textures/LAAT_INT_EXT_metallicRoughness.png"
    },
    {
      "uri": "textures/LAAT_INT_EXT_emissive.png"
    },
    {
      "uri": "textures/LAAT_INT_EXT_normal.png"
    },
    {
      "uri": "textures/LAAT_HULL_baseColor.png"
    },
    {
      "uri": "textures/LAAT_HULL_metallicRoughness.png"
    },
    {
      "uri": "textures/LAAT_HULL_normal.png"
    }
  ],
  "materials": [
    {
      "doubleSided": true,
      "emissiveFactor": [
        1.0,
        1.0,
        1.0
      ],
      "emissiveTexture": {
        "index": 2
      },
      "name": "LAAT_INT_EXT",
      "normalTexture": {
        "index": 3
      },
      "pbrMetallicRoughness": {
        "baseColorTexture": {
          "index": 0
        },
        "metallicRoughnessTexture": {
          "index": 1
        }
      }
    },
    {
      "alphaMode": "BLEND",
      "doubleSided": true,
      "extensions": {
        "KHR_materials_transmission": {
          "transmissionFactor": 0.88
        }
      },
      "name": "LAAT_INT_EXT_Glass",
      "normalTexture": {
        "index": 3
      },
      "pbrMetallicRoughness": {
        "baseColorFactor": [
          0.028952469188477523,
          0.028952469188477523,
          0.028952469188477523,
          0.25
        ],
        "metallicFactor": 0.0,
        "roughnessFactor": 0.5775255696017358
      }
    },
    {
      "doubleSided": true,
      "name": "LAAT_HULL",
      "normalTexture": {
        "index": 6
      },
      "pbrMetallicRoughness": {
        "baseColorTexture": {
          "index": 4
        },
        "metallicRoughnessTexture": {
          "index": 5
        }
      }
    }
  ],
  "meshes": [
    {
      "name": "LAAT INT EXT_LAAT_INT_EXT_0",
      "primitives": [
        {
          "attributes": {
            "COLOR_0": 3,
            "NORMAL": 1,
            "POSITION": 0,
            "TANGENT": 2,
            "TEXCOORD_0": 4,
            "TEXCOORD_1": 5,
            "TEXCOORD_2": 6,
            "TEXCOORD_3": 7
          },
          "indices": 8,
          "material": 0,
          "mode": 4
        }
      ]
    },
    {
      "name": "LAAT INT EXT_LAAT_INT_EXT_0",
      "primitives": [
        {
          "attributes": {
            "COLOR_0": 12,
            "NORMAL": 10,
            "POSITION": 9,
            "TANGENT": 11,
            "TEXCOORD_0": 13,
            "TEXCOORD_1": 14,
            "TEXCOORD_2": 15,
            "TEXCOORD_3": 16
          },
          "indices": 17,
          "material": 0,
          "mode": 4
        }
      ]
    },
    {
      "name": "LAAT INT EXT_LAAT_INT_EXT_0",
      "primitives": [
        {
          "attributes": {
            "COLOR_0": 21,
            "NORMAL": 19,
            "POSITION": 18,
            "TANGENT": 20,
            "TEXCOORD_0": 22,
            "TEXCOORD_1": 23,
            "TEXCOORD_2": 24,
            "TEXCOORD_3": 25
          },
          "indices": 26,
          "material": 0,
          "mode": 4
        }
      ]
    },
    {
      "name": "LAAT INT EXT_LAAT_INT_EXT_0",
      "primitives": [
        {
          "attributes": {
            "COLOR_0": 30,
            "NORMAL": 28,
            "POSITION": 27,
            "TANGENT": 29,
            "TEXCOORD_0": 31,
            "TEXCOORD_1": 32,
            "TEXCOORD_2": 33,
            "TEXCOORD_3": 34
          },
          "indices": 35,
          "material": 0,
          "mode": 4
        }
      ]
    },
    {
      "name": "LAAT INT EXT_LAAT_INT_EXT_Glass_0",
      "primitives": [
        {
          "attributes": {
            "COLOR_0": 39,
            "NORMAL": 37,
            "POSITION": 36,
            "TANGENT": 38,
            "TEXCOORD_0": 40
          },
          "indices": 41,
          "material": 1,
          "mode": 4
        }
      ]
    },
    {
      "name": "LAAT HULL_LAAT_HULL_0",
      "primitives": [
        {
          "attributes": {
            "COLOR_0": 45,
            "NORMAL": 43,
            "POSITION": 42,
            "TANGENT": 44,
            "TEXCOORD_0": 46,
            "TEXCOORD_1": 47,
            "TEXCOORD_2": 48
          },
          "indices": 49,
          "material": 2,
          "mode": 4
        }
      ]
    },
    {
      "name": "LAAT HULL_LAAT_HULL_0",
      "primitives": [
        {
          "attributes": {
            "COLOR_0": 53,
            "NORMAL": 51,
            "POSITION": 50,
            "TANGENT": 52,
            "TEXCOORD_0": 54,
            "TEXCOORD_1": 55,
            "TEXCOORD_2": 56
          },
          "indices": 57,
          "material": 2,
          "mode": 4
        }
      ]
    }
  ],
  "nodes": [
    {
      "children": [
        1
      ],
      "matrix": [
        1.0,
        0.0,
        0.0,
        0.0,
        0.0,
        3.828568672208042e-16,
        -1.0,
        0.0,
        0.0,
        1.0,
        3.828568672208042e-16,
        0.0,
        0.0,
        0.0,
        0.0,
        1.0
      ],
      "name": "Sketchfab_model"
    },
    {
      "children": [
        2
      ],
      "matrix": [
        0.009999999776482582,
        0.0,
        0.0,
        0.0,
        0.0,
        0.0,
        0.009999999776482582,
        0.0,
        0.0,
        -0.009999999776482582,
        0.0,
        0.0,
        0.0,
        0.0,
        0.0,
        1.0
      ],
      "name": "4e961107a8444b538bed2195637903f7.fbx"
    },
    {
      "children": [
        3,
        9
      ],
      "name": "RootNode"
    },
    {
      "children": [
        4,
        5,
        6,
        7,
        8
      ],
      "matrix": [
        100.0,
        0.0,
        0.0,
        0.0,
        0.0,
        -1.6292066696197e-05,
        -99.99999237060415,
        0.0,
        0.0,
        99.99999237060415,
        -1.6292066696197e-05,
        0.0,
        0.0,
        0.0,
        0.0,
        1.0
      ],
      "name": "LAAT INT EXT"
    },
    {
      "mesh": 0,
      "name": "LAAT INT EXT_LAAT_INT_EXT_0"
    },
    {
      "mesh": 1,
      "name": "LAAT INT EXT_LAAT_INT_EXT_0"
    },
    {
      "mesh": 2,
      "name": "LAAT INT EXT_LAAT_INT_EXT_0"
    },
    {
      "mesh": 3,
      "name": "LAAT INT EXT_LAAT_INT_EXT_0"
    },
    {
      "mesh": 4,
      "name": "LAAT INT EXT_LAAT_INT_EXT_Glass_0"
    },
    {
      "children": [
        10,
        11
      ],
      "matrix": [
        100.0,
        0.0,
        0.0,
        0.0,
        0.0,
        -1.6292066696197e-05,
        -99.99999237060415,
        0.0,
        0.0,
        99.99999237060415,
        -1.6292066696197e-05,
        0.0,
        0.0,
        0.0,
        0.0,
        1.0
      ],
      "name": "LAAT HULL"
    },
    {
      "mesh": 5,
      "name": "LAAT HULL_LAAT_HULL_0"
    },
    {
      "mesh": 6,
      "name": "LAAT HULL_LAAT_HULL_0"
    }
  ],
  "samplers": [
    {
      "magFilter": 9729,
      "minFilter": 9987,
      "wrapS": 10497,
      "wrapT": 10497
    }
  ],
  "scene": 0,
  "scenes": [
    {
      "name": "Sketchfab_Scene",
      "nodes": [
        0
      ]
    }
  ],
  "textures": [
    {
      "sampler": 0,
      "source": 0
    },
    {
      "sampler": 0,
      "source": 1
    },
    {
      "sampler": 0,
      "source": 2
    },
    {
      "sampler": 0,
      "source": 3
    },
    {
      "sampler": 0,
      "source": 4
    },
    {
      "sampler": 0,
      "source": 5
    },
    {
      "sampler": 0,
      "source": 6
    }
  ]
}
